<svg xmlns="http://www.w3.org/2000/svg" width="319.33" height="200" fill="none" viewBox="0 0 1021.8 589">
  <path fill="#000" d="M80.4 284.7c18-1.9 41-.5 47.6-.2 28.2 4 35.2 7.5 43.1 12.4 8 5 16.7 11.6 20.2 17.8 2.7 5 4.5 7.6 6.4 11.6a68 68 0 0 1 2.3 34.4c-1.9 11.5-1.9 11-4.1 17-2.3 6.1-8.4 11.3-11.2 14.2-4.7 4.8-16 10-16 10l-82 42.5-22.3 12.1-11.2 6.1-4.5 4-2.2 6.1v6l2.2 4.1h159.5l-5.3-31.6 73.6 48.4-73.6 47.2 5.3-29.6H35.3a32 32 0 0 1-26-18.9c-5.4-16.2-4-17.4-3-25.6.6-6.3 5.3-16.2 5.3-16.2s1.5-3.3 6.7-8c6.7-6.1 11.2-8.2 11.2-8.2s38.1-21.2 124.4-64.7c4.7-2.4 6.7-4 6.7-4s2.2-2.1 4.8-7c1.9-3.2.8-1.6 2-5.2l2-7.2 1-9.2-.8-7.9-2.6-5.4-4.2-4.8-7.9-4.7-10.4-3.5-10.1-2.7-6.8-1.8s-4.3-.9-12.8-1.4q-9.4-.7-21 .2-13.5 1.2-22.3 4c-6.4 2-6.7 2.1-9.3 4-3.3 2.2-4.5 4-4.5 4s-2 1.7-4.5 6c-2 3.8-2.2 6.1-2.2 6.1v8.1H15.2v-9.4s0-3.2 2.2-8.8 4.5-8.1 4.5-8.1c6.7-8 8.7-10.4 13.4-14.2 7.2-5.7 6.7-6 11.2-8 0 0 6.7-4.1 13.4-6.1s6.7-2.5 20.5-4" class="fills"/>
  <path fill="#cc3534" d="M371 261h650.8v247.3H817.2V589H573.3v-80.7H371.1z" class="fills"/>
  <path fill="#fff" d="M817.5 304h161.3v38.4h-80.6v122.9h-80.7zm-201.7-2.7h161.3v43h-78v79.6h78v116.7H615.8v-40.3h121v-36h-121zm-201.7 86h78V425h40.3V304h43v161.3H414.2z" class="fills"/>
  <path fill="#083344" d="M796 0v261.4H371V371H215.2V261.4H0V0z" class="fills"/>
  <path fill="#f7df1e" d="M586.2 111h-53.8v102h-53.7V57h268.9v156h-53.8V111H640v102.2h-53.8zM320 105.6v51h56.5v-51m48.4-53.8v158.6l-102.2-1.3v106.2h-53.8V51.8m-53.8 155.9h-53.8V105.6h-53.7v102.1H53.8v-156H215z" class="fills"/>
</svg>
